<svg width="9" height="30" viewBox="0 0 9 30" fill="none" xmlns="http://www.w3.org/2000/svg">
<path d="M8.27118 16.2337L1.33691 29.7335C1.25689 29.8892 1.16324 29.9804 1.06611 29.9972C0.968981 30.014 0.872068 29.9557 0.785868 29.8287C0.699668 29.7017 0.627465 29.5108 0.577076 29.2767C0.526688 29.0426 0.500034 28.7742 0.500001 28.5005V1.50097C0.499936 1.22719 0.526519 0.958581 0.576869 0.724255C0.627218 0.489929 0.699414 0.298823 0.785632 0.171648C0.87185 0.0444739 0.968801 -0.0139186 1.06598 0.00279966C1.16316 0.0195179 1.25685 0.110709 1.33691 0.26649L8.27118 13.7663C8.34183 13.9049 8.39952 14.0895 8.43936 14.3043C8.4792 14.5191 8.5 14.7577 8.5 15C8.5 15.2423 8.4792 15.4809 8.43936 15.6957C8.39952 15.9105 8.34183 16.0951 8.27118 16.2337Z" fill="black"/>
</svg>
