<svg width="9" height="30" viewBox="0 0 9 30" fill="none" xmlns="http://www.w3.org/2000/svg">
<path d="M0.728819 16.2337L7.66309 29.7335C7.74311 29.8892 7.83676 29.9804 7.93389 29.9972C8.03102 30.014 8.12793 29.9557 8.21413 29.8287C8.30033 29.7017 8.37254 29.5108 8.42292 29.2767C8.47331 29.0426 8.49997 28.7742 8.5 28.5005V1.50097C8.50006 1.22719 8.47348 0.958581 8.42313 0.724255C8.37278 0.489929 8.30059 0.298823 8.21437 0.171648C8.12815 0.0444739 8.0312 -0.0139186 7.93402 0.00279966C7.83684 0.0195179 7.74315 0.110709 7.66309 0.26649L0.728819 13.7663C0.658174 13.9049 0.600479 14.0895 0.560642 14.3043C0.520804 14.5191 0.5 14.7577 0.5 15C0.5 15.2423 0.520804 15.4809 0.560642 15.6957C0.600479 15.9105 0.658174 16.0951 0.728819 16.2337Z" fill="black"/>
</svg>
